<svg id="svg" version="1.1" xmlns="http://www.w3.org/2000/svg" xmlns:xlink="http://www.w3.org/1999/xlink" width="400" height="395.8634953464323" viewBox="0, 0, 400,395.8634953464323"><g id="svgg"><path id="path0" d="M70.165 52.068 C 80.147 52.098,96.481 52.098,106.463 52.068 C 116.445 52.039,108.278 52.014,88.314 52.014 C 68.351 52.014,60.184 52.039,70.165 52.068 M239.245 52.068 L 347.673 52.120 347.725 197.880 L 347.777 343.640 347.777 197.828 L 347.777 52.017 239.297 52.016 L 130.817 52.016 239.245 52.068 M316.338 197.932 C 316.338 261.122,316.362 286.973,316.391 255.377 C 316.420 223.782,316.420 172.081,316.391 140.486 C 316.362 108.891,316.338 134.741,316.338 197.932 M190.950 143.794 L 191.000 158.738 191.055 143.899 L 191.109 129.059 208.687 129.059 L 226.264 129.059 226.319 143.899 L 226.374 158.738 226.372 143.847 L 226.370 128.956 208.635 128.903 L 190.900 128.850 190.950 143.794 M191.002 240.124 C 191.002 280.109,191.026 296.466,191.055 276.474 C 191.084 256.481,191.084 223.767,191.055 203.775 C 191.026 183.782,191.002 200.140,191.002 240.124 M226.369 255.636 C 226.369 304.152,226.393 323.999,226.422 299.741 C 226.451 275.483,226.451 235.789,226.422 211.531 C 226.393 187.272,226.369 207.120,226.369 255.636 M231.743 243.123 C 231.743 253.247,231.769 257.359,231.799 252.259 C 231.830 247.160,231.830 238.877,231.799 233.852 C 231.768 228.827,231.743 232.999,231.743 243.123 M287.172 243.226 C 287.172 253.294,287.198 257.412,287.228 252.378 C 287.259 247.345,287.259 239.108,287.228 234.074 C 287.198 229.041,287.172 233.159,287.172 243.226 M174.509 225.387 C 176.471 225.421,179.682 225.421,181.644 225.387 C 183.607 225.353,182.001 225.326,178.077 225.326 C 174.152 225.326,172.547 225.353,174.509 225.387 M144.400 261.996 C 151.870 262.026,164.155 262.026,171.701 261.996 C 179.246 261.966,173.133 261.941,158.118 261.941 C 143.102 261.941,136.929 261.966,144.400 261.996 M233.190 328.232 C 233.190 336.820,233.216 340.334,233.247 336.039 C 233.278 331.745,233.278 324.718,233.247 320.424 C 233.216 316.130,233.190 319.643,233.190 328.232 " stroke="none" fill="#743cbc" fill-rule="evenodd"></path><path id="path1" d="M239.245 52.068 L 130.714 52.120 130.714 157.032 L 130.714 261.944 158.014 261.891 L 185.315 261.838 185.316 243.587 L 185.316 225.336 178.180 225.393 L 171.044 225.450 171.044 154.297 L 171.044 83.144 243.744 83.144 L 316.443 83.144 316.443 197.932 L 316.443 312.720 274.873 312.720 L 233.304 312.720 233.250 328.335 L 233.195 343.950 290.486 343.950 L 347.777 343.950 347.777 197.932 C 347.777 117.622,347.777 51.936,347.777 51.965 C 347.777 51.993,298.937 52.040,239.245 52.068 M51.965 197.983 L 52.017 343.847 139.193 343.899 L 226.370 343.951 226.318 255.740 L 226.266 167.528 208.686 167.528 L 191.107 167.528 191.107 240.124 L 191.107 312.720 137.332 312.720 L 83.557 312.720 83.557 197.932 L 83.557 83.144 104.033 83.144 L 124.509 83.144 124.509 67.632 L 124.509 52.120 88.211 52.120 L 51.913 52.120 51.965 197.983 M208.738 129.007 L 191.107 129.061 191.107 143.848 L 191.107 158.635 208.684 158.635 L 226.261 158.635 226.316 143.744 C 226.346 135.553,226.370 128.875,226.370 128.903 C 226.370 128.930,218.436 128.977,208.738 129.007 M231.851 243.123 L 231.851 261.427 259.460 261.427 L 287.069 261.427 287.123 243.123 L 287.177 224.819 259.514 224.819 L 231.851 224.819 231.851 243.123 " stroke="none" fill="#783cbc" fill-rule="evenodd"></path><path id="path2" d="M239.245 52.068 L 130.714 52.120 130.714 157.032 L 130.714 261.944 158.014 261.891 L 185.315 261.838 185.316 243.587 L 185.316 225.336 178.180 225.393 L 171.044 225.450 171.044 154.297 L 171.044 83.144 243.744 83.144 L 316.443 83.144 316.443 197.932 L 316.443 312.720 274.873 312.720 L 233.304 312.720 233.250 328.335 L 233.195 343.950 290.486 343.950 L 347.777 343.950 347.777 197.932 C 347.777 117.622,347.777 51.936,347.777 51.965 C 347.777 51.993,298.937 52.040,239.245 52.068 M51.965 197.983 L 52.017 343.847 139.193 343.899 L 226.370 343.951 226.318 255.740 L 226.266 167.528 208.686 167.528 L 191.107 167.528 191.107 240.124 L 191.107 312.720 137.332 312.720 L 83.557 312.720 83.557 197.932 L 83.557 83.144 104.033 83.144 L 124.509 83.144 124.509 67.632 L 124.509 52.120 88.211 52.120 L 51.913 52.120 51.965 197.983 M208.738 129.007 L 191.107 129.061 191.107 143.848 L 191.107 158.635 208.684 158.635 L 226.261 158.635 226.316 143.744 C 226.346 135.553,226.370 128.875,226.370 128.903 C 226.370 128.930,218.436 128.977,208.738 129.007 M231.851 243.123 L 231.851 261.427 259.460 261.427 L 287.069 261.427 287.123 243.123 L 287.177 224.819 259.514 224.819 L 231.851 224.819 231.851 243.123 " stroke="none" fill="#783cbc" fill-rule="evenodd"></path><path id="path3" d="M239.245 52.068 L 130.714 52.120 130.714 157.032 L 130.714 261.944 158.014 261.891 L 185.315 261.838 185.316 243.587 L 185.316 225.336 178.180 225.393 L 171.044 225.450 171.044 154.297 L 171.044 83.144 243.744 83.144 L 316.443 83.144 316.443 197.932 L 316.443 312.720 274.873 312.720 L 233.304 312.720 233.250 328.335 L 233.195 343.950 290.486 343.950 L 347.777 343.950 347.777 197.932 C 347.777 117.622,347.777 51.936,347.777 51.965 C 347.777 51.993,298.937 52.040,239.245 52.068 M51.965 197.983 L 52.017 343.847 139.193 343.899 L 226.370 343.951 226.318 255.740 L 226.266 167.528 208.686 167.528 L 191.107 167.528 191.107 240.124 L 191.107 312.720 137.332 312.720 L 83.557 312.720 83.557 197.932 L 83.557 83.144 104.033 83.144 L 124.509 83.144 124.509 67.632 L 124.509 52.120 88.211 52.120 L 51.913 52.120 51.965 197.983 M208.738 129.007 L 191.107 129.061 191.107 143.848 L 191.107 158.635 208.684 158.635 L 226.261 158.635 226.316 143.744 C 226.346 135.553,226.370 128.875,226.370 128.903 C 226.370 128.930,218.436 128.977,208.738 129.007 M231.851 243.123 L 231.851 261.427 259.460 261.427 L 287.069 261.427 287.123 243.123 L 287.177 224.819 259.514 224.819 L 231.851 224.819 231.851 243.123 " stroke="none" fill="#783cbc" fill-rule="evenodd"></path><path id="path4" d="M239.245 52.068 L 130.714 52.120 130.714 157.032 L 130.714 261.944 158.014 261.891 L 185.315 261.838 185.316 243.587 L 185.316 225.336 178.180 225.393 L 171.044 225.450 171.044 154.297 L 171.044 83.144 243.744 83.144 L 316.443 83.144 316.443 197.932 L 316.443 312.720 274.873 312.720 L 233.304 312.720 233.250 328.335 L 233.195 343.950 290.486 343.950 L 347.777 343.950 347.777 197.932 C 347.777 117.622,347.777 51.936,347.777 51.965 C 347.777 51.993,298.937 52.040,239.245 52.068 M51.965 197.983 L 52.017 343.847 139.193 343.899 L 226.370 343.951 226.318 255.740 L 226.266 167.528 208.686 167.528 L 191.107 167.528 191.107 240.124 L 191.107 312.720 137.332 312.720 L 83.557 312.720 83.557 197.932 L 83.557 83.144 104.033 83.144 L 124.509 83.144 124.509 67.632 L 124.509 52.120 88.211 52.120 L 51.913 52.120 51.965 197.983 M208.738 129.007 L 191.107 129.061 191.107 143.848 L 191.107 158.635 208.684 158.635 L 226.261 158.635 226.316 143.744 C 226.346 135.553,226.370 128.875,226.370 128.903 C 226.370 128.930,218.436 128.977,208.738 129.007 M231.851 243.123 L 231.851 261.427 259.460 261.427 L 287.069 261.427 287.123 243.123 L 287.177 224.819 259.514 224.819 L 231.851 224.819 231.851 243.123 " stroke="none" fill="#783cbc" fill-rule="evenodd"></path></g></svg>